<svg width="16" height="4" viewBox="0 0 16 4" fill="none" xmlns="http://www.w3.org/2000/svg">
<g clip-path="url(#clip0_228_262)">
<path d="M11.5982 0.0155956C11.7054 -0.0104447 11.8214 -2.68221e-05 11.9107 0.0416359L15.3393 1.86455C15.3929 1.89581 15.4286 1.93747 15.4286 1.98434C15.4286 2.03122 15.3929 2.0781 15.3393 2.10934L11.9107 3.9583C11.8214 3.99996 11.7054 4.01038 11.5982 3.98434C11.5 3.9583 11.4286 3.901 11.4286 3.8333V2.66663L0.285719 2.66663C0.125 2.66663 0 2.59372 0 2.49997L0 1.49997C0 1.40622 0.125 1.3333 0.285719 1.3333L11.4286 1.3333V0.166633C11.4286 0.0989211 11.4911 0.0416359 11.5982 0.0155956Z" fill="#F92672"/>
</g>
<defs>
<clipPath id="clip0_228_262">
<rect width="4" height="16" fill="white" transform="translate(0 4) rotate(-90)"/>
</clipPath>
</defs>
</svg>
